<svg xmlns="http://www.w3.org/2000/svg" xmlns:xlink="http://www.w3.org/1999/xlink" viewBox="0,0,256,256" width="64px" height="64px"><defs><linearGradient x1="39.563" y1="10" x2="39.563" y2="53.832" gradientUnits="userSpaceOnUse" id="color-1"><stop offset="0" stop-color="#18d26e"></stop><stop offset="1" stop-color="#18d26e"></stop></linearGradient><linearGradient x1="24.565" y1="10.318" x2="24.565" y2="53.964" gradientUnits="userSpaceOnUse" id="color-2"><stop offset="0" stop-color="#18d26e"></stop><stop offset="1" stop-color="#18d26e"></stop></linearGradient><linearGradient x1="32" y1="6" x2="32" y2="58" gradientUnits="userSpaceOnUse" id="color-3"><stop offset="0" stop-color="#18d26e"></stop><stop offset="1" stop-color="#18d26e"></stop></linearGradient></defs><g fill="none" fill-rule="nonzero" stroke="none" stroke-width="1" stroke-linecap="butt" stroke-linejoin="miter" stroke-miterlimit="10" stroke-dasharray="" stroke-dashoffset="0" font-family="none" font-weight="none" font-size="none" text-anchor="none" style="mix-blend-mode: normal"><g transform="scale(4,4)"><path d="M32,10c-0.249,0 -0.491,0.029 -0.737,0.037c-3.689,2.002 -6.138,5.913 -6.138,10.276c0,1.896 0.439,3.703 1.305,5.374c1.056,2.036 2.842,3.729 5.169,4.901l1.676,0.843c2.587,1.299 4.582,3.201 5.771,5.495c0.956,1.841 1.46,3.916 1.46,6.006c0,4.481 -2.313,8.534 -5.887,10.9c10.899,-1.301 19.382,-10.587 19.382,-21.831c0,-12.131 -9.87,-22.001 -22.001,-22.001zM51.996,36.775c0.045,0.069 -0.065,0.154 -0.115,0.077c-1.067,-1.275 -2.775,-2.515 -3.863,-4.311c-0.153,-0.253 -0.073,-0.56 0.186,-0.697c1.396,-0.748 1.642,-0.612 3.047,-1.218c-1.375,-1.375 -2.801,-1.87 -5.062,-2.439c-0.443,-0.092 -0.697,-0.463 -0.771,-0.872c-0.121,-0.444 -0.378,-1.196 -0.648,-1.797c-1.954,-3.948 -4.389,-9.11 -9.331,-9.498c-0.326,-0.004 -0.637,-0.136 -0.853,-0.353c-0.623,-0.594 -1.495,-1.33 -2.296,-1.451c-0.158,0.015 -0.078,-0.038 -0.201,0.074c-0.32,0.375 -0.256,0.389 -0.036,0.866c0.297,0.507 0.864,1.088 1.42,1.661c0.565,0.73 0.173,1.799 0.544,2.618c0.153,0.582 0.473,1.269 0.829,1.69c0.172,0.221 0.224,0.502 0.171,0.756c-0.396,1.893 -0.675,3.935 -0.292,5.832c0.008,0.202 0.206,0.278 0.352,0.205c0.045,-0.036 0.044,-0.011 0.22,-0.32c0.216,-0.481 1.755,-3.425 2.201,-2.472c0.65,2.115 1.554,6.229 3.468,7.501c0.081,0.034 0.018,0.168 -0.062,0.122c-1.999,-1.033 -3.618,-3.688 -4.095,-5.478c-0.371,0.032 -0.704,0.333 -0.891,0.678c-0.282,0.989 -1.733,1.04 -1.993,-0.018c-0.104,-0.41 -0.19,-0.825 -0.23,-1.244c-0.153,-1.526 -0.056,-3.786 0.29,-4.925c-0.968,-1.045 -1.51,-3.062 -1.382,-4.118c-0.568,-0.575 -1.165,-1.14 -1.609,-1.848c-0.836,-1.064 -0.105,-2.932 1.33,-2.864c1.271,0.106 2.299,0.972 3.204,1.789c1.002,-0.089 2.988,0.611 4.101,1.363c2.522,1.638 3.849,4.45 5.29,6.983c0.562,1.15 1.57,3.094 1.544,4.021c2.566,0.795 5.466,1.756 6.929,4.188c0.026,0.048 0.001,0.11 -0.052,0.125l-3.988,1.251zM37.334,19.456l-1.145,-1.635c2.453,-0.217 1.145,1.637 1.145,1.635z" fill="url(#color-1)"></path><path d="M37.826,37.558c-1.056,-2.035 -2.844,-3.729 -5.169,-4.901l-1.676,-0.843c-2.586,-1.299 -4.582,-3.201 -5.771,-5.495c-0.956,-1.841 -1.46,-3.918 -1.46,-6.006c0,-3.952 1.8,-7.571 4.675,-9.995c-10.433,1.716 -18.426,10.772 -18.426,21.683c0,11.887 9.484,21.579 21.279,21.963c4.622,-1.605 7.853,-6.021 7.853,-11.034c0,-1.896 -0.439,-3.703 -1.305,-5.372zM31.975,50.518c-1.271,-0.106 -2.299,-0.972 -3.204,-1.789c-1.002,0.089 -2.988,-0.611 -4.1,-1.363c-2.522,-1.638 -3.849,-4.45 -5.29,-6.983c-0.562,-1.15 -1.57,-3.094 -1.544,-4.021c-2.566,-0.795 -5.466,-1.756 -6.929,-4.188c-0.026,-0.048 -0.001,-0.11 0.052,-0.125l3.988,-1.251l-2.642,-4.125c-0.045,-0.066 0.065,-0.15 0.115,-0.074c1.067,1.275 2.775,2.515 3.863,4.311c0.153,0.253 0.073,0.56 -0.186,0.697c-1.396,0.747 -1.64,0.611 -3.046,1.218c1.375,1.375 2.801,1.87 5.062,2.439c0.443,0.092 0.697,0.463 0.771,0.872c0.121,0.444 0.378,1.196 0.648,1.797c1.954,3.948 4.389,9.11 9.331,9.498c0.326,0.004 0.637,0.136 0.853,0.353c0.623,0.594 1.495,1.33 2.296,1.451c0.158,-0.015 0.078,0.038 0.201,-0.074c0.32,-0.375 0.256,-0.389 0.036,-0.866c-0.297,-0.507 -0.863,-1.088 -1.42,-1.661c-0.565,-0.73 -0.173,-1.799 -0.544,-2.618c-0.153,-0.582 -0.473,-1.269 -0.829,-1.69c-0.172,-0.221 -0.224,-0.502 -0.171,-0.756c0.396,-1.893 0.675,-3.935 0.292,-5.832c-0.008,-0.202 -0.206,-0.278 -0.352,-0.205c-0.045,0.036 -0.044,0.011 -0.22,0.32c-0.217,0.479 -1.756,3.424 -2.203,2.47c-0.65,-2.115 -1.554,-6.229 -3.468,-7.501c-0.081,-0.034 -0.018,-0.168 0.062,-0.122c1.999,1.033 3.618,3.688 4.095,5.478c0.371,-0.032 0.704,-0.333 0.891,-0.678c0.282,-0.989 1.733,-1.04 1.992,0.018c0.105,0.41 0.19,0.825 0.23,1.244c0.153,1.526 0.056,3.786 -0.29,4.925c0.968,1.045 1.51,3.062 1.382,4.118c0.568,0.575 1.165,1.14 1.609,1.848c0.835,1.065 0.103,2.932 -1.331,2.865zM26.969,43.994l1.145,1.635c-2.453,0.219 -1.144,-1.635 -1.145,-1.635z" fill="url(#color-2)"></path><path d="M32,58c-14.337,0 -26,-11.663 -26,-26c0,-14.337 11.663,-26 26,-26c14.337,0 26,11.663 26,26c0,14.337 -11.663,26 -26,26zM32,8c-13.233,0 -24,10.767 -24,24c0,13.233 10.767,24 24,24c13.233,0 24,-10.767 24,-24c0,-13.233 -10.767,-24 -24,-24z" fill="url(#color-3)"></path></g></g></svg>