<svg xmlns="http://www.w3.org/2000/svg" xmlns:xlink="http://www.w3.org/1999/xlink" viewBox="0,0,256,256" width="64px" height="64px"><defs><linearGradient x1="31.937" y1="5" x2="31.937" y2="58.875" gradientUnits="userSpaceOnUse" id="color-1"><stop offset="0" stop-color="#18d26e"></stop><stop offset="1" stop-color="#18d26e"></stop></linearGradient><linearGradient x1="41.5" y1="10" x2="41.5" y2="54" gradientUnits="userSpaceOnUse" id="color-2"><stop offset="0" stop-color="#18d26e"></stop><stop offset="1" stop-color="#18d26e"></stop></linearGradient><linearGradient x1="23.313" y1="16" x2="23.313" y2="46.625" gradientUnits="userSpaceOnUse" id="color-3"><stop offset="0" stop-color="#18d26e"></stop><stop offset="1" stop-color="#18d26e"></stop></linearGradient></defs><g fill-opacity="0" fill="#dddddd" fill-rule="nonzero" stroke="none" stroke-width="1" stroke-linecap="butt" stroke-linejoin="miter" stroke-miterlimit="10" stroke-dasharray="" stroke-dashoffset="0" font-family="none" font-weight="none" font-size="none" text-anchor="none" style="mix-blend-mode: normal"><path d="M0,256v-256h256v256z" id="bgRectangle"></path></g><g fill="none" fill-rule="nonzero" stroke="none" stroke-width="1" stroke-linecap="butt" stroke-linejoin="miter" stroke-miterlimit="10" stroke-dasharray="" stroke-dashoffset="0" font-family="none" font-weight="none" font-size="none" text-anchor="none" style="mix-blend-mode: normal"><g transform="scale(4,4)"><path d="M31.875,58.875c-0.092,0 -0.183,-0.013 -0.271,-0.037l-18.625,-5.25c-0.398,-0.113 -0.687,-0.46 -0.725,-0.872l-4.25,-46.625c-0.025,-0.28 0.068,-0.558 0.258,-0.765c0.189,-0.208 0.457,-0.326 0.738,-0.326h45.875c0.28,0 0.547,0.117 0.736,0.324c0.189,0.206 0.284,0.482 0.26,0.762l-4,46.625c-0.035,0.416 -0.327,0.767 -0.729,0.878l-19,5.25c-0.088,0.024 -0.177,0.036 -0.267,0.036zM14.184,51.85l17.694,4.987l18.061,-4.99l3.846,-44.847h-43.689z" fill="url(#color-1)"></path><path d="M32,10v44l15.25,-4l3.75,-40zM47.375,28.625l-1.125,14.75l-12.5,3.125v-5.25l9,-2.5l0.125,-4.375l-9.25,1.375v-19.75h14.625l-0.375,5.375l-9.625,0.125v8.125z" fill="url(#color-2)"></path><path d="M16.625,42.875v-5.5l9,2.5v-23.875h4.375v30.625z" fill="url(#color-3)"></path></g></g></svg>