<svg xmlns="http://www.w3.org/2000/svg" xmlns:xlink="http://www.w3.org/1999/xlink" viewBox="0,0,256,256" width="64px" height="64px"><defs><linearGradient x1="32.682" y1="52" x2="32.682" y2="12" gradientUnits="userSpaceOnUse" id="color-1"><stop offset="0" stop-color="#18d26e"></stop><stop offset="1" stop-color="#18d26e"></stop></linearGradient></defs><g fill="url(#color-1)" fill-rule="nonzero" stroke="none" stroke-width="1" stroke-linecap="butt" stroke-linejoin="miter" stroke-miterlimit="10" stroke-dasharray="" stroke-dashoffset="0" font-family="none" font-weight="none" font-size="none" text-anchor="none" style="mix-blend-mode: normal"><g transform="scale(4,4)"><path d="M51.925,34.991c-1.865,0.01 -3.481,0.457 -4.834,1.125c-0.495,-0.988 -0.997,-1.858 -1.081,-2.504c-0.098,-0.754 -0.212,-1.206 -0.093,-2.104c0.119,-0.899 0.639,-2.172 0.632,-2.268c-0.007,-0.096 -0.116,-0.553 -1.192,-0.562c-1.076,-0.007 -1.996,0.207 -2.104,0.491c-0.108,0.284 -0.315,0.923 -0.444,1.59c-0.188,0.975 -2.148,4.455 -3.26,6.274c-0.364,-0.711 -0.673,-1.337 -0.737,-1.831c-0.098,-0.754 -0.212,-1.206 -0.093,-2.104c0.119,-0.899 0.639,-2.172 0.632,-2.268c-0.007,-0.096 -0.116,-0.553 -1.192,-0.562c-1.076,-0.007 -1.996,0.207 -2.104,0.491c-0.108,0.284 -0.224,0.947 -0.444,1.59c-0.221,0.642 -2.825,6.445 -3.507,7.95c-0.348,0.766 -0.65,1.383 -0.864,1.802c-0.001,-0.001 -0.001,-0.002 -0.001,-0.002c0,0 -0.013,0.028 -0.035,0.075c-0.183,0.358 -0.291,0.555 -0.291,0.555c0,0 0.001,0.002 0.004,0.007c-0.146,0.263 -0.301,0.507 -0.377,0.507c-0.053,0 -0.161,-0.7 0.023,-1.66c0.388,-2.013 1.318,-5.152 1.31,-5.261c-0.005,-0.056 0.173,-0.603 -0.608,-0.889c-0.759,-0.278 -1.03,0.186 -1.099,0.187c-0.067,0.001 -0.116,0.164 -0.116,0.164c0,0 0.845,-3.53 -1.613,-3.53c-1.538,0 -3.668,1.682 -4.717,3.207c-0.662,0.361 -2.08,1.135 -3.583,1.961c-0.577,0.318 -1.167,0.642 -1.726,0.95c-0.038,-0.042 -0.076,-0.084 -0.115,-0.126c-2.982,-3.181 -8.493,-5.431 -8.26,-9.708c0.085,-1.555 0.626,-5.649 10.591,-10.614c8.163,-4.068 14.699,-2.948 15.828,-0.468c1.613,3.545 -3.493,10.132 -11.97,11.083c-3.23,0.363 -4.931,-0.89 -5.355,-1.356c-0.445,-0.491 -0.512,-0.513 -0.678,-0.421c-0.27,0.15 -0.099,0.583 0,0.842c0.253,0.659 1.292,1.826 3.062,2.409c1.558,0.512 5.351,0.792 9.936,-0.982c5.137,-1.987 9.148,-7.515 7.969,-12.134c-1.198,-4.698 -8.989,-6.244 -16.363,-3.624c-4.394,1.56 -9.145,4.007 -12.561,7.202c-4.062,3.799 -4.709,7.106 -4.442,8.487c0.948,4.909 7.715,8.106 10.424,10.475c-0.133,0.074 -0.26,0.143 -0.374,0.206c-1.358,0.672 -6.516,3.372 -7.807,6.223c-1.464,3.235 0.233,5.556 1.356,5.869c3.48,0.968 7.05,-0.774 8.97,-3.636c1.919,-2.861 1.685,-6.588 0.804,-8.288c-0.011,-0.021 -0.023,-0.041 -0.034,-0.063c0.351,-0.207 0.708,-0.418 1.062,-0.627c0.691,-0.406 1.37,-0.785 1.959,-1.105c-0.33,0.902 -0.571,1.985 -0.696,3.549c-0.148,1.836 0.605,4.21 1.59,5.143c0.434,0.411 0.956,0.421 1.286,0.421c1.146,0 1.669,-0.953 2.245,-2.081c0.706,-1.383 1.333,-2.993 1.333,-2.993c0,0 -0.786,4.349 1.356,4.349c0.781,0 1.566,-1.013 1.916,-1.528c0.001,0.006 0.001,0.008 0.001,0.008c0,0 0.021,-0.034 0.061,-0.101c0.081,-0.124 0.127,-0.203 0.127,-0.203c0,0 0.001,-0.008 0.004,-0.023c0.314,-0.545 1.01,-1.786 2.053,-3.835c1.349,-2.646 2.641,-5.962 2.641,-5.962c0,0 0.12,0.81 0.514,2.152c0.232,0.788 0.724,1.66 1.113,2.497c-0.313,0.434 -0.505,0.683 -0.505,0.683c0,0 0.001,0.005 0.005,0.013c-0.25,0.332 -0.53,0.69 -0.823,1.039c-1.065,1.267 -2.332,2.715 -2.502,3.133c-0.2,0.492 -0.153,0.854 0.234,1.146c0.283,0.212 0.785,0.246 1.31,0.211c0.957,-0.064 1.629,-0.302 1.961,-0.446c0.518,-0.183 1.121,-0.471 1.686,-0.887c1.044,-0.768 1.674,-1.865 1.613,-3.321c-0.034,-0.802 -0.289,-1.596 -0.612,-2.346c0.095,-0.136 0.189,-0.274 0.285,-0.412c1.646,-2.406 2.923,-5.05 2.923,-5.05c0,0 0.12,0.81 0.514,2.152c0.199,0.678 0.593,1.419 0.947,2.144c-1.548,1.258 -2.507,2.719 -2.84,3.677c-0.616,1.773 -0.133,2.576 0.771,2.759c0.41,0.082 0.99,-0.106 1.425,-0.29c0.542,-0.179 1.193,-0.479 1.802,-0.927c1.044,-0.768 2.048,-1.842 1.988,-3.296c-0.028,-0.662 -0.207,-1.32 -0.451,-1.95c1.312,-0.547 3.01,-0.85 5.174,-0.598c4.641,0.542 5.551,3.44 5.378,4.652c-0.175,1.213 -1.147,1.88 -1.474,2.081c-0.325,0.201 -0.424,0.272 -0.398,0.421c0.04,0.217 0.19,0.21 0.468,0.163c0.382,-0.064 2.437,-0.986 2.525,-3.225c0.11,-2.848 -2.612,-5.97 -7.436,-5.944zM16.151,47.051c-1.538,1.677 -3.684,2.31 -4.606,1.777c-0.994,-0.576 -0.6,-3.045 1.286,-4.826c1.15,-1.084 2.634,-2.084 3.619,-2.698c0.224,-0.135 0.553,-0.332 0.953,-0.572c0.067,-0.038 0.104,-0.058 0.104,-0.058l-0.001,-0.002c0.078,-0.046 0.156,-0.093 0.238,-0.143c0.687,2.532 0.022,4.762 -1.593,6.522zM27.352,39.438c-0.535,1.305 -1.655,4.645 -2.338,4.466c-0.586,-0.154 -0.942,-2.692 -0.116,-5.191c0.415,-1.258 1.303,-2.76 1.824,-3.344c0.839,-0.939 1.763,-1.246 1.988,-0.865c0.284,0.485 -1.022,4.115 -1.358,4.934zM36.604,43.853c-0.227,0.119 -0.435,0.193 -0.531,0.136c-0.072,-0.042 0.093,-0.199 0.093,-0.199c0,0 1.157,-1.246 1.613,-1.812c0.266,-0.33 0.572,-0.722 0.907,-1.158c0.002,0.044 0.004,0.087 0.004,0.13c-0.002,1.491 -1.443,2.497 -2.086,2.903zM43.732,42.227c-0.17,-0.12 -0.141,-0.509 0.416,-1.723c0.218,-0.477 0.718,-1.278 1.584,-2.045c0.101,0.315 0.161,0.617 0.16,0.899c-0.011,1.877 -1.35,2.578 -2.16,2.869z"></path></g></g></svg>