<svg xmlns="http://www.w3.org/2000/svg" xmlns:xlink="http://www.w3.org/1999/xlink" viewBox="0,0,256,256" width="64px" height="64px"><defs><linearGradient x1="32" y1="57.81" x2="32" y2="6.19" gradientUnits="userSpaceOnUse" id="color-1"><stop offset="0" stop-color="#18d26e"></stop><stop offset="1" stop-color="#18d26e"></stop></linearGradient><linearGradient x1="32" y1="61.97" x2="32" y2="2.027" gradientUnits="userSpaceOnUse" id="color-2"><stop offset="0" stop-color="#18d26e"></stop><stop offset="1" stop-color="#18d26e"></stop></linearGradient></defs><g fill="none" fill-rule="nonzero" stroke="none" stroke-width="1" stroke-linecap="butt" stroke-linejoin="miter" stroke-miterlimit="10" stroke-dasharray="" stroke-dashoffset="0" font-family="none" font-weight="none" font-size="none" text-anchor="none" style="mix-blend-mode: normal"><g transform="scale(4,4)"><path d="M29.12,33.97h-2.6c-0.2,0 -0.4,0.04 -0.58,0.11l0.02,-5.32c1.31,4.13 6.05,4.98 10.53,5.42c7.02,0.69 7.02,1.62 7.02,2.23c0,0.9 0,2.56 -5.73,2.56c-5.3,0 -6.27,-1.08 -6.65,-3.32c-0.16,-0.97 -1.02,-1.68 -2.01,-1.68zM32,6.19l-22,12.82v25.98l7.04,4.1c0.85,0.5 1.62,0.11 1.9,-0.06c0.29,-0.16 0.96,-0.65 0.96,-1.64l0.09,-27.9c0.01,-0.83 0.68,-1.5 1.51,-1.5l3,0.02c0.83,0 1.5,0.67 1.49,1.5l-0.01,4.3c1.19,-3.64 5.14,-5.81 10.89,-5.81c7.74,0 11.75,2.88 12.25,8.81c0.04,0.46 -0.12,0.93 -0.44,1.28c-0.33,0.35 -0.78,0.54 -1.24,0.54h-2.58c-0.95,0 -1.8,-0.62 -2.03,-1.54c-0.49,-2.01 -1.44,-3.08 -5.97,-3.08c-4.76,0 -4.76,1.5 -4.76,2.13c0,0.82 0,1.26 10.79,2.52c4.01,0.47 7.23,3.85 7.11,7.89c-0.16,5.3 -4.71,8.45 -12.25,8.45v-0.03c-4.86,0 -8.41,-1.09 -10.56,-3.24c-0.51,-0.51 -0.94,-1.08 -1.27,-1.69l-0.02,7.36c0,2.12 -0.82,4.08 -2.27,5.53l8.37,4.88l22,-12.82v-25.98z" fill="url(#color-1)"></path><path d="M26.904,36.014c0.072,1.75 0.655,3.184 1.735,4.267c1.754,1.756 4.831,2.646 9.147,2.646v0.026c3.813,-0.005 10.168,-0.885 10.168,-6.689c0,-3.789 -2.003,-5.091 -9.315,-6.062c-6.379,-0.844 -8.585,-1.278 -8.585,-4.058c0,-4.178 5.122,-4.178 6.804,-4.178c4.962,0 7.089,1.187 7.96,4.62h2.219c-0.547,-4.521 -3.703,-6.539 -10.168,-6.539c-5.862,0 -9.224,2.267 -9.224,6.222c0,3.727 2.283,5.209 9.049,5.877c6.795,0.665 8.867,1.661 8.867,4.264c0,4.087 -4.16,4.611 -7.784,4.611c-6.276,0 -8.077,-1.752 -8.66,-5.007zM58,18.44v27.12c0,1.07 -0.57,2.06 -1.49,2.6l-23,13.4c-0.47,0.27 -0.99,0.41 -1.51,0.41c-0.52,0 -1.04,-0.14 -1.51,-0.41l-10.99,-6.4c0.83,-0.17 1.64,-0.47 2.41,-0.91h0.01l9.58,5.58c0.31,0.19 0.69,0.19 1,0l23,-13.4c0.31,-0.18 0.5,-0.51 0.5,-0.87v-27.12c0,-0.36 -0.19,-0.69 -0.5,-0.87l-23,-13.4c-0.31,-0.19 -0.69,-0.19 -1,0l-23,13.4c-0.31,0.18 -0.5,0.51 -0.5,0.87v27.12c0,0.36 0.19,0.69 0.5,0.87l3.682,2.15l3.784,2.203c1.224,0.713 2.699,0.711 3.946,-0.005c1.242,-0.714 1.984,-1.982 1.984,-3.393l0.104,-27.389l2,0.008l-0.104,27.385c0,2.131 -1.117,4.048 -2.987,5.123c-0.938,0.539 -1.962,0.808 -2.983,0.808c-1.022,0 -2.042,-0.27 -2.968,-0.81l-3.78,-2.202l-3.688,-2.148c-0.92,-0.54 -1.49,-1.53 -1.49,-2.6v-27.12c0,-1.07 0.57,-2.06 1.49,-2.6l23,-13.4c0.93,-0.55 2.09,-0.55 3.02,0l23,13.4c0.92,0.54 1.49,1.53 1.49,2.6z" fill="url(#color-2)"></path></g></g></svg>